<?xml version="1.0" encoding="utf-8"?>
<!-- Generator: Adobe Illustrator 24.2.1, SVG Export Plug-In . SVG Version: 6.00 Build 0)  -->
<svg version="1.1" id="Layer_1" xmlns="http://www.w3.org/2000/svg" xmlns:xlink="http://www.w3.org/1999/xlink" x="0px" y="0px"
	 viewBox="0 0 200 70" style="enable-background:new 0 0 200 70;" xml:space="preserve">
<style type="text/css">
	.st0{fill:#FFFFFF;}
	.st1{fill:url(#SVGID_1_);}
	.st2{fill:url(#SVGID_2_);}
	.st3{fill:url(#SVGID_3_);}
	.st4{fill:url(#SVGID_4_);}
</style>
<g>
	<path class="st0" d="M55.35,31.08V46.7c0,0.33,0.12,0.6,0.36,0.79c0.24,0.19,0.54,0.31,0.89,0.35l0.81,0.06
		c0.22,0,0.33,0.12,0.33,0.36c0,0.11-0.04,0.2-0.13,0.28s-0.17,0.11-0.26,0.11l-3.15-0.11l-3.45,0.11c-0.09,0-0.18-0.04-0.26-0.11
		s-0.13-0.17-0.13-0.28c0-0.24,0.11-0.36,0.33-0.36l1.03-0.06c0.35-0.04,0.65-0.15,0.89-0.35c0.24-0.2,0.36-0.46,0.36-0.79V31.08
		c0-0.5-0.23-0.75-0.7-0.75h-2.34c-0.91,0-1.62,0.25-2.14,0.74c-0.52,0.49-0.93,1.22-1.23,2.19c-0.11,0.28-0.26,0.42-0.46,0.42
		s-0.34-0.05-0.43-0.15c-0.09-0.1-0.13-0.22-0.11-0.35l0.22-3.59c0.04-0.35,0.24-0.53,0.61-0.53h15.43c0.39,0,0.6,0.22,0.64,0.67
		l0.28,3.45c0.02,0.15-0.02,0.27-0.11,0.36c-0.09,0.09-0.24,0.14-0.43,0.14s-0.35-0.14-0.46-0.42c-0.33-0.98-0.76-1.72-1.27-2.2
		c-0.51-0.48-1.21-0.72-2.1-0.72h-2.34C55.58,30.33,55.35,30.58,55.35,31.08z"/>
	<path class="st0" d="M77.62,48.54H67.18l-3.15,0.11c-0.26,0-0.39-0.12-0.39-0.38c0-0.25,0.1-0.38,0.31-0.38l0.81-0.06
		c0.37-0.04,0.68-0.15,0.92-0.35c0.24-0.2,0.36-0.46,0.36-0.79V30.88c0-0.67-0.43-1.04-1.28-1.11l-0.81-0.08
		c-0.2,0-0.31-0.12-0.31-0.38c0-0.25,0.13-0.38,0.39-0.38l3.15,0.11h9.88c0.35,0,0.64,0.11,0.86,0.32s0.35,0.48,0.39,0.79l0.39,2.56
		c0.04,0.33-0.1,0.5-0.4,0.5s-0.51-0.15-0.6-0.45c-0.28-0.89-0.7-1.52-1.25-1.89c-0.56-0.37-1.33-0.56-2.31-0.56h-4.37
		c-0.41,0-0.74,0.12-0.99,0.35c-0.25,0.23-0.38,0.55-0.38,0.96v5.85c0,0.24,0.12,0.36,0.36,0.36h5.18c0.26,0,0.46-0.06,0.61-0.19
		s0.25-0.25,0.29-0.36s0.12-0.32,0.21-0.61l0.11-0.36c0.06-0.22,0.19-0.33,0.42-0.33s0.33,0.13,0.33,0.39l-0.11,2.37l0.11,2.25
		c0,0.24-0.12,0.38-0.36,0.42c-0.22,0-0.35-0.11-0.39-0.33l-0.08-0.5c-0.17-0.97-0.55-1.45-1.14-1.45h-5.21
		c-0.22,0-0.33,0.13-0.33,0.39v6.46c0,0.39,0.13,0.7,0.38,0.93c0.25,0.23,0.58,0.35,0.99,0.35h4.59c0.96,0,1.8-0.24,2.49-0.71
		c0.7-0.47,1.18-1.16,1.46-2.07c0.09-0.3,0.25-0.45,0.46-0.45c0.21,0,0.36,0.05,0.45,0.15c0.08,0.1,0.12,0.22,0.1,0.35l-0.45,2.9
		c-0.04,0.32-0.17,0.58-0.4,0.79C78.24,48.43,77.95,48.54,77.62,48.54z"/>
	<path class="st0" d="M106.5,48.26c0,0.11-0.04,0.2-0.12,0.28c-0.08,0.07-0.17,0.11-0.27,0.11l-3.15-0.11l-2.76,0.11
		c-0.26,0-0.39-0.12-0.39-0.35s0.1-0.37,0.31-0.4l0.47-0.06c0.78-0.09,1.17-0.47,1.17-1.14l-0.22-13.17c0-0.19-0.05-0.28-0.17-0.28
		c-0.06,0-0.09,0.03-0.11,0.08l-7.57,15.15c-0.09,0.17-0.21,0.25-0.33,0.25c-0.13,0-0.23-0.08-0.31-0.25l-7.6-14.7
		c-0.02-0.06-0.06-0.08-0.11-0.08c-0.11,0-0.17,0.09-0.17,0.28L85,46.7c0,0.61,0.37,0.98,1.11,1.11l0.47,0.08
		c0.24,0.04,0.36,0.17,0.36,0.39s-0.14,0.33-0.42,0.33l-2.28-0.08l-2.7,0.08c-0.26,0-0.39-0.11-0.39-0.33s0.1-0.35,0.31-0.39
		l0.81-0.08c0.85-0.09,1.28-0.46,1.28-1.11l0.33-15.82c0.02-0.65-0.35-1.02-1.11-1.11l-0.5-0.06c-0.22-0.04-0.33-0.17-0.33-0.4
		s0.14-0.35,0.42-0.35l2.45,0.08c0.63,0.02,1.03,0.2,1.2,0.56l7.88,15.59l7.68-15.59c0.17-0.33,0.58-0.52,1.23-0.56l2.48-0.08
		c0.3,0,0.45,0.12,0.45,0.35s-0.11,0.37-0.34,0.4l-0.5,0.06c-0.72,0.06-1.09,0.43-1.09,1.11l0.33,15.82c0,0.33,0.12,0.6,0.35,0.79
		c0.23,0.19,0.53,0.31,0.88,0.35l0.81,0.06C106.38,47.9,106.5,48.02,106.5,48.26z"/>
	<path class="st0" d="M110.92,46.7c-0.04,0.11-0.06,0.24-0.06,0.38c0,0.14,0.07,0.3,0.22,0.47c0.15,0.18,0.35,0.27,0.61,0.29
		l0.61,0.06c0.24,0.04,0.36,0.16,0.36,0.36c0,0.26-0.14,0.39-0.42,0.39l-2.42-0.11l-2.53,0.11c-0.26,0-0.39-0.12-0.39-0.38
		c0-0.25,0.1-0.38,0.31-0.38l0.53-0.06c0.8-0.09,1.34-0.47,1.62-1.14l7.16-17.62c0.07-0.22,0.29-0.33,0.65-0.33
		c0.36,0,0.59,0.11,0.68,0.33l7.13,17.62c0.24,0.69,0.77,1.07,1.59,1.14l0.58,0.06c0.07,0,0.14,0.04,0.2,0.11
		c0.06,0.07,0.08,0.15,0.08,0.22c0,0.28-0.13,0.42-0.39,0.42l-3.2-0.11l-2.87,0.11c-0.26,0-0.39-0.11-0.39-0.33
		c0-0.26,0.11-0.4,0.33-0.42l0.64-0.06c0.24-0.02,0.44-0.11,0.6-0.28c0.16-0.17,0.24-0.32,0.24-0.47c0-0.15-0.03-0.28-0.08-0.39
		l-1.64-4.26c-0.06-0.19-0.2-0.28-0.45-0.28h-7.21c-0.22,0-0.37,0.09-0.45,0.28L110.92,46.7z M113.51,40.88h6.21
		c0.2,0,0.27-0.11,0.19-0.33l-3.31-8.52l-3.31,8.58C113.23,40.79,113.31,40.88,113.51,40.88z"/>
	<path class="st0" d="M129.44,39.38h5.6c0.22,0,0.33,0.1,0.33,0.31v1.31c0,0.21-0.11,0.31-0.33,0.31h-5.6
		c-0.22,0-0.33-0.1-0.33-0.31v-1.31C129.1,39.48,129.21,39.38,129.44,39.38z"/>
	<path class="st0" d="M163.35,48.26c0,0.11-0.04,0.2-0.12,0.28c-0.08,0.07-0.17,0.11-0.26,0.11l-3.15-0.11l-2.76,0.11
		c-0.26,0-0.39-0.12-0.39-0.35s0.1-0.37,0.31-0.4l0.47-0.06c0.78-0.09,1.17-0.47,1.17-1.14l-0.22-13.17c0-0.19-0.06-0.28-0.17-0.28
		c-0.06,0-0.09,0.03-0.11,0.08l-7.57,15.15c-0.09,0.17-0.2,0.25-0.33,0.25s-0.23-0.08-0.31-0.25l-7.6-14.7
		c-0.02-0.06-0.06-0.08-0.11-0.08c-0.11,0-0.17,0.09-0.17,0.28l-0.17,12.72c0,0.61,0.37,0.98,1.11,1.11l0.47,0.08
		c0.24,0.04,0.36,0.17,0.36,0.39s-0.14,0.33-0.42,0.33l-2.28-0.08l-2.7,0.08c-0.26,0-0.39-0.11-0.39-0.33s0.1-0.35,0.31-0.39
		l0.81-0.08c0.85-0.09,1.28-0.46,1.28-1.11l0.33-15.82c0.02-0.65-0.35-1.02-1.11-1.11l-0.5-0.06c-0.22-0.04-0.33-0.17-0.33-0.4
		s0.14-0.35,0.42-0.35l2.45,0.08c0.63,0.02,1.03,0.2,1.2,0.56l7.88,15.59l7.68-15.59c0.17-0.33,0.58-0.52,1.23-0.56l2.48-0.08
		c0.3,0,0.45,0.12,0.45,0.35s-0.11,0.37-0.33,0.4l-0.5,0.06c-0.72,0.06-1.09,0.43-1.09,1.11l0.33,15.82c0,0.33,0.12,0.6,0.35,0.79
		c0.23,0.19,0.52,0.31,0.88,0.35l0.81,0.06C163.24,47.9,163.35,48.02,163.35,48.26z"/>
	<path class="st0" d="M167.78,46.7c-0.04,0.11-0.06,0.24-0.06,0.38c0,0.14,0.07,0.3,0.22,0.47c0.15,0.18,0.35,0.27,0.61,0.29
		l0.61,0.06c0.24,0.04,0.36,0.16,0.36,0.36c0,0.26-0.14,0.39-0.42,0.39l-2.42-0.11l-2.53,0.11c-0.26,0-0.39-0.12-0.39-0.38
		c0-0.25,0.1-0.38,0.31-0.38l0.53-0.06c0.8-0.09,1.34-0.47,1.62-1.14l7.16-17.62c0.07-0.22,0.29-0.33,0.65-0.33
		c0.36,0,0.59,0.11,0.68,0.33l7.13,17.62c0.24,0.69,0.77,1.07,1.59,1.14l0.58,0.06c0.07,0,0.14,0.04,0.2,0.11
		c0.06,0.07,0.08,0.15,0.08,0.22c0,0.28-0.13,0.42-0.39,0.42l-3.2-0.11l-2.87,0.11c-0.26,0-0.39-0.11-0.39-0.33
		c0-0.26,0.11-0.4,0.33-0.42l0.64-0.06c0.24-0.02,0.44-0.11,0.6-0.28c0.16-0.17,0.24-0.32,0.24-0.47c0-0.15-0.03-0.28-0.08-0.39
		l-1.64-4.26c-0.06-0.19-0.2-0.28-0.45-0.28h-7.21c-0.22,0-0.37,0.09-0.45,0.28L167.78,46.7z M170.37,40.88h6.21
		c0.2,0,0.27-0.11,0.19-0.33l-3.31-8.52l-3.31,8.58C170.09,40.79,170.16,40.88,170.37,40.88z"/>
</g>
<g>
	<linearGradient id="SVGID_1_" gradientUnits="userSpaceOnUse" x1="15.6498" y1="29.4351" x2="31.4529" y2="29.4351">
		<stop  offset="3.435246e-04" style="stop-color:#F0575D"/>
		<stop  offset="0.0339" style="stop-color:#EC566A"/>
		<stop  offset="0.0809" style="stop-color:#E75579"/>
		<stop  offset="0.1288" style="stop-color:#E45485"/>
		<stop  offset="0.1776" style="stop-color:#E2548C"/>
		<stop  offset="0.2276" style="stop-color:#E15391"/>
		<stop  offset="0.2809" style="stop-color:#E05393"/>
		<stop  offset="0.8754" style="stop-color:#945BA5"/>
	</linearGradient>
	<path class="st1" d="M31.18,39.19c0.09,0.03,0.18,0.06,0.27,0.08c-0.06-0.03-0.11-0.06-0.17-0.09C18.52,32.5,16.82,20.5,16.71,19.6
		c0.04,0.41-2.26,2.71-0.21,6.77C18.55,30.42,23.16,36.55,31.18,39.19z"/>
	<linearGradient id="SVGID_2_" gradientUnits="userSpaceOnUse" x1="19.968" y1="28.4595" x2="30.3377" y2="28.4595">
		<stop  offset="3.435246e-04" style="stop-color:#F0575D"/>
		<stop  offset="0.0339" style="stop-color:#EC566A"/>
		<stop  offset="0.0809" style="stop-color:#E75579"/>
		<stop  offset="0.1288" style="stop-color:#E45485"/>
		<stop  offset="0.1776" style="stop-color:#E2548C"/>
		<stop  offset="0.2276" style="stop-color:#E15391"/>
		<stop  offset="0.2809" style="stop-color:#E05393"/>
		<stop  offset="0.8754" style="stop-color:#945BA5"/>
	</linearGradient>
	<path class="st2" d="M30.12,38.02c0.07,0.04,0.14,0.08,0.21,0.12c-0.04-0.04-0.08-0.07-0.13-0.11c-9.49-8.03-8.66-18.46-8.58-19.25
		c-0.04,0.35-2.39,3.27-1.43,6.83C21.16,29.17,23.87,34.28,30.12,38.02z"/>
	<linearGradient id="SVGID_3_" gradientUnits="userSpaceOnUse" x1="12.2566" y1="36.0107" x2="41.9438" y2="36.0107">
		<stop  offset="3.435246e-04" style="stop-color:#F0575D"/>
		<stop  offset="0.0339" style="stop-color:#EC566A"/>
		<stop  offset="0.0809" style="stop-color:#E75579"/>
		<stop  offset="0.1288" style="stop-color:#E45485"/>
		<stop  offset="0.1776" style="stop-color:#E2548C"/>
		<stop  offset="0.2276" style="stop-color:#E15391"/>
		<stop  offset="0.2809" style="stop-color:#E05393"/>
		<stop  offset="0.8754" style="stop-color:#945BA5"/>
	</linearGradient>
	<path class="st3" d="M41.18,42.29c-0.64-0.61-1.12-0.75-1.12-0.75s-0.07-0.47-0.87-1.27c-0.8-0.8-2.48-1.18-4.02-0.79
		c-1.04,0.26-2.37,0.56-4.01,0.03c-8.79-2.82-15.51-10.31-18.89-16.33c-0.15,0.74,8,16.93,2.88,23.35
		c4.08-0.02,7.66,3.36,13.91,2.02c6.23-1.34,4.65-4.47,10.38-5.53c1.09-0.2,2.51,0.15,2.51,0.15S41.82,42.9,41.18,42.29z"/>
	<linearGradient id="SVGID_4_" gradientUnits="userSpaceOnUse" x1="9.3392" y1="47.8002" x2="15.1416" y2="47.8002">
		<stop  offset="3.435246e-04" style="stop-color:#F0575D"/>
		<stop  offset="0.0339" style="stop-color:#EC566A"/>
		<stop  offset="0.0809" style="stop-color:#E75579"/>
		<stop  offset="0.1288" style="stop-color:#E45485"/>
		<stop  offset="0.1776" style="stop-color:#E2548C"/>
		<stop  offset="0.2276" style="stop-color:#E15391"/>
		<stop  offset="0.2809" style="stop-color:#E05393"/>
		<stop  offset="0.8754" style="stop-color:#945BA5"/>
	</linearGradient>
	<path class="st4" d="M15.14,46.52c-1.76,0.01-3.61,0.65-5.8,2.57C12.13,48.93,13.98,47.98,15.14,46.52z"/>
</g>
</svg>
